<!-- icon666.com - MILLIONS OF FREE VECTOR ICONS --><svg id="Layer_1" enable-background="new 0 0 3000 3000" viewBox="0 0 3000 3000" xmlns="http://www.w3.org/2000/svg"><g transform="translate(0 -2248)"><g transform="matrix(1.012 0 0 1.012 -3.097 -30.311)"><g id="Icons"><path clip-rule="evenodd" d="m321.205 4158.634c-7.107-67.207 9.75-125.566 5.303-190.371-5.326-77.52-55.154-152.227-64.248-232.382-3.738-32.988-24.896-114.902 14.063-136.933 89.936-50.919 188.238 31.523 283.664 9.609 44.736-10.254 53.121-59.648 83.25-88.184 29.244-27.715 79.418-37.323 116.801-51.913 32.414-12.657 103.693 75.82 128.309 27.597 10.799-21.094-31.371-65.04-32.918-87.012-3.709-52.676 14.109-145.195 31.846-195.292 12.07-34.102 138.984-153.926 174.609-163.067 16.283-4.16 116.039-20.273 115.365-49.278-.551-23.788-84.287-22.323-62.883-122.93 34.277-161.133 181.477-109.218 276.697-176.718 61.389-43.476 94.529-121.699 178.781-127.969 82.951-6.151 120.885 89.181 157.518 91.348 39.375 2.343 81.908-69.199 126.24-37.91 43.957 30.996 37.131 131.777 102.463 140.449 62.051 8.261 68.35-42.891 120.334-61.641 25.342-9.141 191.754 79.395 209.174 97.792 35.344 37.266 5.836 106.29 14.531 149.708 5.256 26.25 26.051 40.722 25.078 69.727-1.488 44.296-21.246 86.484-21.955 130.78-.814 51.035 57.58 59.239 80.18 93.985 21.896 33.691-14.643 90.292 23.32 144.609 22.828 32.637 47.162 74.648 80.291 97.501 41.191 28.417 92.226 34.511 125.455 75.176 21.949 26.894-13.154 86.015 11.813 102.422 25.383 16.64 71.9-1.173 101.631 7.266 31.816 9.022 144.896 135.527 148.324 164.706 4.975 42.305-50.215 68.73-77.191 89.121-46.523 35.156-82.465 80.391-145.74 82.853-56.977 2.167-147.715-116.192-200.707-1.758-26.244 56.719 88.09 75.059 102.018 114.61 10.137 28.769-5.39 55.371-.521 82.851 6.164 34.863 31.553 64.512 34.33 100.489 1.412 18.28-15.234 44.413-11.373 60.176 6.756 27.48 32.461 46.758 39.973 72.832 2.11 7.324-69.803 28.125-74.191 29.18-61.658 15.468-173.965 4.864-211.002 55.195-28.898 39.258-55.371 101.661-52.6 150.645 4.154 73.535 89.344 169.571-23.121 221.661-2.01.937-13.711-13.653-15.064-15.294-26.49-32.401-37.219-68.437-81.006-82.206-3.381-1.114-157.734 13.651-172.406 18.926-16.336 5.859-38.736 34.511-56.063 34.98-38.607.937-35.004-97.208-83.391-106.64-54.849-10.665-86.057 66.503-128.959 69.14-23.32 1.406-55.166-48.867-78.691-57.832-74.959-28.653-152.643-10.313-216.246 29.94-4.072 2.58-8.285-4.921-12.322-7.499-48.521-31.642-103.746-38.849-148.764-74.707-86.66-68.965-172.4-65.509-276.85-90.294-52.635-12.421-96.738-38.729-152.543-41.776-100.424-5.509-310.061-13.653-397.857 24.14-89.227 38.497-111.563 134.531-235.213 121.23-47.543-5.097 35.074-201.738 31.014-223.358-12.961-68.906-98.947-69.2-127.676-118.477-43.863-75.235 121.09-142.793 189.059-174.375 8.381-3.869 25.204-42.072 30.067-44.828z" fill-rule="evenodd"></path></g></g></g></svg>